<svg width="16" height="16" viewBox="0 0 16 16" fill="none" xmlns="http://www.w3.org/2000/svg">
<g clip-path="url(#clip0_1156_7862)">
<path d="M14.6668 7.3865V7.99983C14.666 9.43744 14.2005 10.8363 13.3397 11.9877C12.4789 13.1391 11.269 13.9815 9.8904 14.3891C8.51178 14.7967 7.03834 14.7478 5.68981 14.2496C4.34128 13.7513 3.18993 12.8306 2.40747 11.6245C1.62501 10.4185 1.25336 8.99187 1.34795 7.55737C1.44254 6.12287 1.9983 4.75738 2.93235 3.66454C3.8664 2.57171 5.12869 1.81008 6.53096 1.49326C7.93322 1.17643 9.40034 1.32139 10.7135 1.9065" stroke="#727582" stroke-width="1.33333" stroke-linecap="round" stroke-linejoin="round"/>
<path d="M14.6667 2.66675L8 9.34008L6 7.34008" stroke="#727582" stroke-width="1.33333" stroke-linecap="round" stroke-linejoin="round"/>
</g>
<defs>
<clipPath id="clip0_1156_7862">
<rect width="16" height="16" fill="white"/>
</clipPath>
</defs>
</svg>
