<svg width="16" height="17" viewBox="0 0 16 17" fill="none" xmlns="http://www.w3.org/2000/svg">
<mask id="mask0_586_5445" style="mask-type:alpha" maskUnits="userSpaceOnUse" x="1" y="1" width="14" height="15">
<path fill-rule="evenodd" clip-rule="evenodd" d="M8.00016 1.83325C4.32016 1.83325 1.3335 4.81992 1.3335 8.49992C1.3335 12.1799 4.32016 15.1666 8.00016 15.1666C11.6802 15.1666 14.6668 12.1799 14.6668 8.49992C14.6668 4.81992 11.6802 1.83325 8.00016 1.83325ZM8.00016 9.16659C7.6335 9.16659 7.3335 8.86659 7.3335 8.49992V5.83325C7.3335 5.46659 7.6335 5.16659 8.00016 5.16659C8.36683 5.16659 8.66683 5.46659 8.66683 5.83325V8.49992C8.66683 8.86659 8.36683 9.16659 8.00016 9.16659ZM7.3335 10.4999V11.8333H8.66683V10.4999H7.3335Z" fill="black"/>
</mask>
<g mask="url(#mask0_586_5445)">
<rect y="0.5" width="16" height="16" fill="#FB2B2B"/>
</g>
</svg>
