<svg width="181" height="28" viewBox="0 0 181 28" fill="none" xmlns="http://www.w3.org/2000/svg">
<path d="M26.1242 5.89062H16.5052V9.72689H23.3418V13.7197H5.45532" stroke="#FF7C32" stroke-width="8.77067" stroke-linecap="round" stroke-linejoin="round"/>
<path d="M9.00278 22.0078H18.6217V18.1715H11.7851V14.1787H29.6716" stroke="#FF7C32" stroke-width="8.77067" stroke-linecap="round" stroke-linejoin="round"/>
<path d="M26.1242 5.98438H16.5052V9.82064H23.3418V13.8135H5.45532" stroke="#FF7C32" stroke-width="0.730889" stroke-linecap="round" stroke-linejoin="round"/>
<path d="M9.00278 21.6357H18.6217V17.7995H11.7851V13.8066H29.6716" stroke="#FF7C32" stroke-width="0.730889" stroke-linecap="round" stroke-linejoin="round"/>
<path d="M47.3119 8.94518C47.2949 9.42231 47.5675 9.83127 48.1299 10.1721C48.6922 10.5129 49.4846 10.8537 50.507 11.1945L51.7594 11.629C52.5092 11.9016 53.1823 12.2425 53.7787 12.6514C54.3921 13.0604 54.9118 13.546 55.3379 14.1084C55.7639 14.6536 56.0791 15.2756 56.2836 15.9742C56.4881 16.6559 56.5647 17.4056 56.5136 18.2235C56.3943 20.0468 55.6531 21.4612 54.2899 22.4665C52.9437 23.4719 51.1034 23.9746 48.7689 23.9746C47.6272 23.9746 46.5281 23.8468 45.4716 23.5912C44.4151 23.3526 43.5375 22.9607 42.8389 22.4154C42.6003 22.2109 42.3958 21.9809 42.2254 21.7253C42.055 21.4527 41.9272 21.1715 41.842 20.8818C41.7739 20.5921 41.7654 20.2939 41.8165 19.9872C41.8676 19.6634 41.9869 19.3567 42.1743 19.067C42.3618 18.7774 42.6259 18.5558 42.9667 18.4025C43.3075 18.2491 43.6483 18.1639 43.9891 18.1469C44.4321 18.1298 44.7815 18.198 45.0371 18.3514C45.3097 18.5047 45.5653 18.6496 45.8039 18.7859C46.0936 18.9733 46.4684 19.1352 46.9285 19.2715C47.3886 19.3908 48.0532 19.4504 48.9222 19.4504C49.6379 19.4504 50.1917 19.3226 50.5836 19.067C50.9756 18.8114 51.1801 18.4025 51.1971 17.8401C51.1971 17.6016 51.1034 17.3715 50.9159 17.15C50.7285 16.9285 50.4558 16.724 50.098 16.5366C49.7572 16.3491 49.3568 16.1702 48.8967 15.9998C48.4366 15.8124 47.9424 15.6334 47.4142 15.463C47.2097 15.3949 46.9882 15.3182 46.7496 15.233C46.5281 15.1478 46.3406 15.0711 46.1873 15.003C45.216 14.594 44.4321 14.0913 43.8357 13.4949C43.2393 12.8815 42.7878 12.2254 42.481 11.5268C42.1914 10.8111 42.038 10.0784 42.021 9.32858C42.021 8.57882 42.1317 7.87165 42.3532 7.20708C42.7963 5.82683 43.6142 4.76182 44.807 4.01205C46.0169 3.26229 47.4994 2.8874 49.2545 2.8874C49.9191 2.8874 50.4984 2.92148 50.9926 2.98964C51.5038 3.04076 51.9469 3.11744 52.3217 3.21969C52.7137 3.30489 53.046 3.41565 53.3186 3.55197C53.6083 3.67125 53.8724 3.79053 54.111 3.90981C54.7074 4.23358 55.1675 4.68514 55.4912 5.2645C55.832 5.84387 55.9087 6.44028 55.7213 7.05372C55.5509 7.58197 55.2612 7.95685 54.8522 8.17837C54.4603 8.3999 54.0172 8.51066 53.5231 8.51066C53.3356 8.51066 53.1226 8.47658 52.8841 8.40842C52.6455 8.34025 52.4666 8.26357 52.3473 8.17837C52.0406 7.97389 51.6487 7.79497 51.1715 7.64161C50.6944 7.48825 50.0724 7.41157 49.3056 7.41157C48.6922 7.41157 48.2065 7.53937 47.8487 7.79497C47.5079 8.03353 47.329 8.41694 47.3119 8.94518ZM65.0204 23.9746C64.1002 23.9746 63.1715 23.8553 62.2343 23.6168C61.2971 23.3782 60.4451 22.9863 59.6783 22.441C58.9285 21.8957 58.3151 21.1715 57.838 20.2684C57.3779 19.3482 57.1478 18.2235 57.1478 16.8944V14.6451C57.1478 13.2819 57.3694 12.1487 57.8124 11.2456C58.2725 10.3425 58.8519 9.61827 59.5505 9.07298C60.2662 8.5277 61.05 8.14429 61.902 7.92277C62.7711 7.68421 63.6146 7.56493 64.4325 7.56493C65.3186 7.56493 66.1791 7.67569 67.0141 7.89721C67.8661 8.10169 68.6244 8.50214 69.289 9.09854C69.9535 9.69495 70.4818 10.5299 70.8737 11.6034C71.2827 12.6599 71.4871 14.0317 71.4871 15.7186C71.4871 15.9402 71.4701 16.2043 71.436 16.511C71.419 16.8177 71.3934 17.0819 71.3593 17.3034H62.2088V17.3289C62.2088 17.772 62.3025 18.1383 62.4899 18.428C62.6774 18.7177 62.9159 18.9563 63.2056 19.1437C63.4953 19.3312 63.8105 19.4675 64.1513 19.5527C64.4921 19.6208 64.8159 19.6549 65.1226 19.6549C65.7531 19.6549 66.2388 19.6294 66.5796 19.5782C66.9204 19.5271 67.2612 19.4419 67.602 19.3226C67.7894 19.2545 67.9769 19.1863 68.1643 19.1182C68.3688 19.033 68.5818 18.9733 68.8033 18.9392C69.2464 18.8881 69.6468 18.9392 70.0046 19.0926C70.3795 19.246 70.6522 19.5186 70.8226 19.9105C71.0952 20.541 71.0952 21.1204 70.8226 21.6486C70.567 22.1598 70.1324 22.5944 69.519 22.9522C69.3145 23.0715 69.0504 23.1908 68.7266 23.31C68.4199 23.4293 68.0621 23.5401 67.6531 23.6423C67.2612 23.7446 66.8352 23.8212 66.3751 23.8724C65.932 23.9405 65.4805 23.9746 65.0204 23.9746ZM64.4581 11.7057C64.1684 11.7057 63.8872 11.7483 63.6146 11.8335C63.359 11.9016 63.1289 12.0295 62.9245 12.2169C62.72 12.3873 62.5496 12.6173 62.4132 12.907C62.2769 13.1797 62.2088 13.529 62.2088 13.955H66.5284C66.5455 13.529 66.4944 13.1797 66.3751 12.907C66.2728 12.6173 66.128 12.3873 65.9406 12.2169C65.7531 12.0295 65.5231 11.9016 65.2504 11.8335C64.9948 11.7483 64.7307 11.7057 64.4581 11.7057ZM82.365 23.5401L82.1605 22.4665C81.6664 22.9266 81.087 23.293 80.4224 23.5656C79.7579 23.8383 79.0422 23.9746 78.2754 23.9746H77.7131C77.1848 23.9746 76.614 23.8894 76.0005 23.719C75.3871 23.5656 74.8162 23.293 74.288 22.9011C73.7768 22.5092 73.3422 21.9809 72.9844 21.3163C72.6436 20.6518 72.4732 19.8168 72.4732 18.8114C72.4732 17.8401 72.6436 17.0307 72.9844 16.3832C73.3252 15.7357 73.7768 15.216 74.3391 14.824C74.9185 14.4321 75.583 14.151 76.3328 13.9805C77.0996 13.8101 77.9005 13.7249 78.7355 13.7249H81.3682C81.3511 13.3501 81.2744 13.0433 81.1381 12.8048C81.0188 12.5492 80.8484 12.3532 80.6269 12.2169C80.4224 12.0635 80.1754 11.9613 79.8857 11.9102C79.613 11.842 79.3233 11.8079 79.0166 11.8079C78.7269 11.8079 78.4458 11.8335 78.1731 11.8846C77.9005 11.9357 77.6108 12.0039 77.3041 12.0891C77.0996 12.1573 76.9036 12.2339 76.7162 12.3191C76.5458 12.4043 76.3413 12.4981 76.1028 12.6003C75.8642 12.7196 75.6086 12.7877 75.3359 12.8048C75.0803 12.8048 74.8247 12.7707 74.5691 12.7025C74.3135 12.6173 74.075 12.4895 73.8535 12.3191C73.649 12.1487 73.4871 11.9357 73.3678 11.6801C73.1292 11.1689 73.0952 10.6748 73.2656 10.1976C73.436 9.70347 73.7427 9.28598 74.1857 8.94518C74.5265 8.68958 74.9099 8.47658 75.3359 8.30617C75.762 8.13577 76.205 7.99945 76.6651 7.89721C77.1252 7.77793 77.5852 7.69273 78.0453 7.64161C78.5225 7.59049 78.9825 7.56493 79.4256 7.56493C80.3458 7.56493 81.2233 7.66717 82.0583 7.87165C82.9103 8.05909 83.6515 8.40842 84.282 8.91962C84.9296 9.41379 85.4408 10.1039 85.8156 10.99C86.2076 11.8761 86.4035 13.0093 86.4035 14.3895V23.5401H82.365ZM81.3682 17.4823H79.0422C78.548 17.4823 78.1731 17.6016 77.9175 17.8401C77.6619 18.0617 77.5341 18.3769 77.5341 18.7859C77.5341 19.2119 77.6619 19.5271 77.9175 19.7316C78.1731 19.9361 78.5225 20.0383 78.9655 20.0383H79.3233C79.5619 20.0383 79.8005 20.0042 80.039 19.9361C80.2776 19.8679 80.4906 19.7657 80.678 19.6294C80.8825 19.493 81.0444 19.3226 81.1637 19.1182C81.3 18.9137 81.3682 18.6751 81.3682 18.4025V17.4823ZM89.6717 12.2936H88.8282C88.0273 12.2936 87.4479 12.0806 87.0901 11.6546C86.7493 11.2286 86.5789 10.7429 86.5789 10.1976C86.5789 9.94203 86.6129 9.68643 86.6811 9.43083C86.7663 9.17522 86.8941 8.94518 87.0645 8.7407C87.2519 8.53622 87.4905 8.37433 87.7802 8.25505C88.0699 8.11873 88.4192 8.05057 88.8282 8.05057H89.6717V5.39231C89.6717 4.9663 89.7398 4.59142 89.8761 4.26766C90.0295 3.94389 90.2255 3.67977 90.464 3.47529C90.7026 3.27081 90.9667 3.11744 91.2564 3.0152C91.5631 2.91296 91.8784 2.86184 92.2021 2.86184C92.5259 2.86184 92.8326 2.91296 93.1223 3.0152C93.429 3.11744 93.7016 3.27081 93.9402 3.47529C94.1788 3.67977 94.3662 3.94389 94.5025 4.26766C94.6559 4.59142 94.7326 4.9663 94.7326 5.39231V8.05057H96.2406C96.6496 8.05057 96.9904 8.11873 97.263 8.25505C97.5527 8.37433 97.7828 8.53622 97.9532 8.7407C98.1406 8.94518 98.2769 9.17522 98.3621 9.43083C98.4473 9.68643 98.4899 9.94203 98.4899 10.1976C98.4899 10.7429 98.311 11.2286 97.9532 11.6546C97.6124 12.0806 97.0415 12.2936 96.2406 12.2936H94.7326V18.6325C94.7326 19.0244 94.8093 19.28 94.9626 19.3993C95.133 19.5186 95.329 19.5868 95.5505 19.6038C95.7379 19.6208 95.9084 19.6123 96.0617 19.5782C96.2151 19.5271 96.4196 19.5016 96.6752 19.5016C97.1012 19.5016 97.476 19.6294 97.7998 19.885C98.1236 20.1406 98.3281 20.4814 98.4133 20.9074C98.5325 21.4356 98.4899 21.9042 98.2855 22.3132C98.098 22.7222 97.8254 23.0459 97.4675 23.2845C97.1778 23.4719 96.8115 23.6338 96.3684 23.7701C95.9254 23.9064 95.4823 23.9746 95.0393 23.9746C94.1873 23.9746 93.429 23.8809 92.7644 23.6934C92.0999 23.506 91.5375 23.2078 91.0775 22.7988C90.6174 22.3899 90.2681 21.8531 90.0295 21.1885C89.7909 20.524 89.6717 19.706 89.6717 18.7348V12.2936ZM110.119 8.94518C110.102 9.42231 110.375 9.83127 110.937 10.1721C111.499 10.5129 112.292 10.8537 113.314 11.1945L114.567 11.629C115.316 11.9016 115.99 12.2425 116.586 12.6514C117.199 13.0604 117.719 13.546 118.145 14.1084C118.571 14.6536 118.886 15.2756 119.091 15.9742C119.295 16.6559 119.372 17.4056 119.321 18.2235C119.202 20.0468 118.46 21.4612 117.097 22.4665C115.751 23.4719 113.911 23.9746 111.576 23.9746C110.434 23.9746 109.335 23.8468 108.279 23.5912C107.222 23.3526 106.345 22.9607 105.646 22.4154C105.408 22.2109 105.203 21.9809 105.033 21.7253C104.862 21.4527 104.735 21.1715 104.649 20.8818C104.581 20.5921 104.573 20.2939 104.624 19.9872C104.675 19.6634 104.794 19.3567 104.982 19.067C105.169 18.7774 105.433 18.5558 105.774 18.4025C106.115 18.2491 106.456 18.1639 106.796 18.1469C107.239 18.1298 107.589 18.198 107.844 18.3514C108.117 18.5047 108.373 18.6496 108.611 18.7859C108.901 18.9733 109.276 19.1352 109.736 19.2715C110.196 19.3908 110.86 19.4504 111.73 19.4504C112.445 19.4504 112.999 19.3226 113.391 19.067C113.783 18.8114 113.987 18.4025 114.004 17.8401C114.004 17.6016 113.911 17.3715 113.723 17.15C113.536 16.9285 113.263 16.724 112.905 16.5366C112.565 16.3491 112.164 16.1702 111.704 15.9998C111.244 15.8124 110.75 15.6334 110.221 15.463C110.017 15.3949 109.795 15.3182 109.557 15.233C109.335 15.1478 109.148 15.0711 108.995 15.003C108.023 14.594 107.239 14.0913 106.643 13.4949C106.047 12.8815 105.595 12.2254 105.288 11.5268C104.999 10.8111 104.845 10.0784 104.828 9.32858C104.828 8.57882 104.939 7.87165 105.161 7.20708C105.604 5.82683 106.422 4.76182 107.614 4.01205C108.824 3.26229 110.307 2.8874 112.062 2.8874C112.726 2.8874 113.306 2.92148 113.8 2.98964C114.311 3.04076 114.754 3.11744 115.129 3.21969C115.521 3.30489 115.853 3.41565 116.126 3.55197C116.416 3.67125 116.68 3.79053 116.918 3.90981C117.515 4.23358 117.975 4.68514 118.299 5.2645C118.639 5.84387 118.716 6.44028 118.529 7.05372C118.358 7.58197 118.068 7.95685 117.66 8.17837C117.268 8.3999 116.825 8.51066 116.33 8.51066C116.143 8.51066 115.93 8.47658 115.691 8.40842C115.453 8.34025 115.274 8.26357 115.155 8.17837C114.848 7.97389 114.456 7.79497 113.979 7.64161C113.502 7.48825 112.88 7.41157 112.113 7.41157C111.499 7.41157 111.014 7.53937 110.656 7.79497C110.315 8.03353 110.136 8.41694 110.119 8.94518ZM127.828 23.9746C126.908 23.9746 125.979 23.8553 125.042 23.6168C124.104 23.3782 123.252 22.9863 122.486 22.441C121.736 21.8957 121.122 21.1715 120.645 20.2684C120.185 19.3482 119.955 18.2235 119.955 16.8944V14.6451C119.955 13.2819 120.177 12.1487 120.62 11.2456C121.08 10.3425 121.659 9.61827 122.358 9.07298C123.073 8.5277 123.857 8.14429 124.709 7.92277C125.578 7.68421 126.422 7.56493 127.24 7.56493C128.126 7.56493 128.986 7.67569 129.821 7.89721C130.673 8.10169 131.432 8.50214 132.096 9.09854C132.761 9.69495 133.289 10.5299 133.681 11.6034C134.09 12.6599 134.294 14.0317 134.294 15.7186C134.294 15.9402 134.277 16.2043 134.243 16.511C134.226 16.8177 134.201 17.0819 134.167 17.3034H125.016V17.3289C125.016 17.772 125.11 18.1383 125.297 18.428C125.485 18.7177 125.723 18.9563 126.013 19.1437C126.303 19.3312 126.618 19.4675 126.959 19.5527C127.299 19.6208 127.623 19.6549 127.93 19.6549C128.56 19.6549 129.046 19.6294 129.387 19.5782C129.728 19.5271 130.068 19.4419 130.409 19.3226C130.597 19.2545 130.784 19.1863 130.972 19.1182C131.176 19.033 131.389 18.9733 131.611 18.9392C132.054 18.8881 132.454 18.9392 132.812 19.0926C133.187 19.246 133.459 19.5186 133.63 19.9105C133.903 20.541 133.903 21.1204 133.63 21.6486C133.374 22.1598 132.94 22.5944 132.326 22.9522C132.122 23.0715 131.858 23.1908 131.534 23.31C131.227 23.4293 130.869 23.5401 130.46 23.6423C130.068 23.7446 129.642 23.8212 129.182 23.8724C128.739 23.9405 128.288 23.9746 127.828 23.9746ZM127.265 11.7057C126.976 11.7057 126.695 11.7483 126.422 11.8335C126.166 11.9016 125.936 12.0295 125.732 12.2169C125.527 12.3873 125.357 12.6173 125.221 12.907C125.084 13.1797 125.016 13.529 125.016 13.955H129.336C129.353 13.529 129.302 13.1797 129.182 12.907C129.08 12.6173 128.935 12.3873 128.748 12.2169C128.56 12.0295 128.33 11.9016 128.058 11.8335C127.802 11.7483 127.538 11.7057 127.265 11.7057ZM135.562 23.5401V10.121C135.562 9.69495 135.63 9.32858 135.766 9.02186C135.92 8.6981 136.115 8.43398 136.354 8.22949C136.593 8.00797 136.865 7.84609 137.172 7.74385C137.479 7.62457 137.802 7.56493 138.143 7.56493C138.637 7.56493 139.098 7.68421 139.524 7.92277C139.967 8.16133 140.299 8.51066 140.52 8.97074C141.015 8.51066 141.585 8.16133 142.233 7.92277C142.897 7.68421 143.571 7.56493 144.252 7.56493C145.07 7.56493 145.828 7.67569 146.527 7.89721C147.243 8.11873 147.856 8.50214 148.367 9.04742C148.896 9.57567 149.313 10.2914 149.62 11.1945C149.927 12.0976 150.08 13.2223 150.08 14.5684V23.5401H144.814V14.2617C144.814 13.8357 144.746 13.4779 144.61 13.1882C144.491 12.8815 144.329 12.6344 144.124 12.4469C143.937 12.2595 143.724 12.1317 143.485 12.0635C143.247 11.9783 143.017 11.9357 142.795 11.9357C142.574 11.9357 142.344 11.9783 142.105 12.0635C141.867 12.1317 141.645 12.2595 141.441 12.4469C141.236 12.6344 141.066 12.8815 140.929 13.1882C140.81 13.4779 140.75 13.8357 140.75 14.2617V23.5401H135.562ZM156.445 12.4469C156.411 12.7537 156.59 12.9837 156.982 13.1371C157.391 13.2904 158.073 13.4523 159.027 13.6227C159.197 13.6568 159.359 13.6909 159.513 13.7249C159.683 13.759 159.845 13.7931 159.998 13.8272C161.532 14.2191 162.657 14.8922 163.372 15.8464C164.088 16.7837 164.352 18.0276 164.165 19.5782C164.062 20.328 163.815 20.9841 163.423 21.5464C163.048 22.0917 162.554 22.5432 161.941 22.9011C161.327 23.2589 160.62 23.523 159.819 23.6934C159.035 23.8809 158.201 23.9746 157.314 23.9746C156.871 23.9746 156.411 23.949 155.934 23.8979C155.474 23.8638 155.014 23.7957 154.554 23.6934C154.094 23.5912 153.651 23.4549 153.225 23.2845C152.799 23.097 152.424 22.867 152.1 22.5944C151.657 22.2195 151.35 21.7594 151.18 21.2141C151.027 20.6518 151.129 20.098 151.487 19.5527C151.674 19.28 151.904 19.0841 152.177 18.9648C152.467 18.8455 152.782 18.7774 153.123 18.7603C153.532 18.7433 153.855 18.8029 154.094 18.9392C154.332 19.0756 154.562 19.2119 154.784 19.3482C155.057 19.5186 155.449 19.6549 155.96 19.7572C156.471 19.8594 156.974 19.9105 157.468 19.9105C157.962 19.9105 158.337 19.8253 158.592 19.6549C158.865 19.4845 159.018 19.28 159.053 19.0415C159.087 18.7348 158.822 18.4962 158.26 18.3258C157.715 18.1383 156.948 17.9424 155.96 17.7379C155.772 17.7038 155.585 17.6697 155.397 17.6357C155.227 17.5845 155.065 17.5334 154.912 17.4823C153.906 17.1756 153.123 16.7666 152.56 16.2554C151.998 15.7272 151.606 15.1478 151.384 14.5173C151.163 13.8868 151.086 13.2308 151.154 12.5492C151.223 11.8676 151.393 11.2286 151.666 10.6322C151.921 10.1039 152.254 9.64383 152.662 9.2519C153.088 8.85998 153.566 8.54474 154.094 8.30617C154.639 8.05057 155.218 7.86313 155.832 7.74385C156.445 7.62457 157.076 7.56493 157.723 7.56493C158.746 7.56493 159.623 7.65865 160.356 7.84609C161.089 8.03353 161.677 8.25505 162.12 8.51066C162.648 8.80034 163.065 9.20078 163.372 9.71199C163.679 10.2062 163.747 10.7429 163.577 11.3223C163.423 11.8164 163.168 12.1573 162.81 12.3447C162.452 12.5321 162.043 12.6259 161.583 12.6259C161.413 12.6259 161.217 12.6003 160.995 12.5492C160.791 12.481 160.629 12.4043 160.509 12.3191C160.356 12.2169 160.169 12.1317 159.947 12.0635C159.726 11.9783 159.487 11.9016 159.231 11.8335C158.993 11.7653 158.746 11.7142 158.49 11.6801C158.235 11.646 158.005 11.629 157.8 11.629C157.391 11.629 157.067 11.7142 156.829 11.8846C156.59 12.038 156.462 12.2254 156.445 12.4469ZM172.686 23.9746C171.766 23.9746 170.837 23.8553 169.9 23.6168C168.963 23.3782 168.111 22.9863 167.344 22.441C166.594 21.8957 165.981 21.1715 165.504 20.2684C165.043 19.3482 164.813 18.2235 164.813 16.8944V14.6451C164.813 13.2819 165.035 12.1487 165.478 11.2456C165.938 10.3425 166.517 9.61827 167.216 9.07298C167.932 8.5277 168.716 8.14429 169.568 7.92277C170.437 7.68421 171.28 7.56493 172.098 7.56493C172.984 7.56493 173.845 7.67569 174.68 7.89721C175.532 8.10169 176.29 8.50214 176.954 9.09854C177.619 9.69495 178.147 10.5299 178.539 11.6034C178.948 12.6599 179.153 14.0317 179.153 15.7186C179.153 15.9402 179.136 16.2043 179.102 16.511C179.085 16.8177 179.059 17.0819 179.025 17.3034H169.874V17.3289C169.874 17.772 169.968 18.1383 170.155 18.428C170.343 18.7177 170.581 18.9563 170.871 19.1437C171.161 19.3312 171.476 19.4675 171.817 19.5527C172.158 19.6208 172.481 19.6549 172.788 19.6549C173.419 19.6549 173.904 19.6294 174.245 19.5782C174.586 19.5271 174.927 19.4419 175.268 19.3226C175.455 19.2545 175.642 19.1863 175.83 19.1182C176.034 19.033 176.247 18.9733 176.469 18.9392C176.912 18.8881 177.312 18.9392 177.67 19.0926C178.045 19.246 178.318 19.5186 178.488 19.9105C178.761 20.541 178.761 21.1204 178.488 21.6486C178.233 22.1598 177.798 22.5944 177.185 22.9522C176.98 23.0715 176.716 23.1908 176.392 23.31C176.085 23.4293 175.728 23.5401 175.319 23.6423C174.927 23.7446 174.501 23.8212 174.041 23.8724C173.598 23.9405 173.146 23.9746 172.686 23.9746ZM172.124 11.7057C171.834 11.7057 171.553 11.7483 171.28 11.8335C171.025 11.9016 170.794 12.0295 170.59 12.2169C170.386 12.3873 170.215 12.6173 170.079 12.907C169.942 13.1797 169.874 13.529 169.874 13.955H174.194C174.211 13.529 174.16 13.1797 174.041 12.907C173.938 12.6173 173.794 12.3873 173.606 12.2169C173.419 12.0295 173.189 11.9016 172.916 11.8335C172.66 11.7483 172.396 11.7057 172.124 11.7057Z" fill="#1E1E1E"/>
</svg>
