<svg width="48" height="49" viewBox="0 0 48 49" fill="none" xmlns="http://www.w3.org/2000/svg">
<rect width="48" height="49" fill="white"/>
<path d="M30 14C30 12.4087 29.3679 10.8826 28.2426 9.75736C27.1174 8.63214 25.5913 8 24 8C22.4087 8 20.8826 8.63214 19.7574 9.75736C18.6321 10.8826 18 12.4087 18 14C18 21 15 23 15 23H33C33 23 30 21 30 14Z" stroke="#A9ABB6" stroke-width="2" stroke-linecap="round" stroke-linejoin="round"/>
<path d="M25.7295 27C25.5537 27.3031 25.3014 27.5547 24.9978 27.7295C24.6941 27.9044 24.3499 27.9965 23.9995 27.9965C23.6492 27.9965 23.3049 27.9044 23.0013 27.7295C22.6977 27.5547 22.4453 27.3031 22.2695 27" stroke="#A9ABB6" stroke-width="2" stroke-linecap="round" stroke-linejoin="round"/>
<path d="M22.4961 33.1094V34.9941H23.8047V35.6387H22.4961V37.5332H21.7344V33.1094H22.4961ZM15.875 35.3555C15.8701 34.2178 16.8271 33.4365 18.1309 33.4316C19.4395 33.4365 20.3867 34.2178 20.3867 35.3555C20.3867 36.498 19.4395 37.2842 18.1309 37.2891C16.8271 37.2842 15.8701 36.498 15.875 35.3555ZM16.627 35.3555C16.6221 36.1172 17.2617 36.6641 18.1309 36.6641C18.9951 36.6641 19.6396 36.1172 19.6348 35.3555C19.6396 34.6035 18.9951 34.0664 18.1309 34.0762C17.2617 34.0664 16.6221 34.6035 16.627 35.3555ZM16.959 38.5586V37.9434H22.4961V40.0625H17.7305V41.0586H22.8184V41.6738H16.9785V39.4766H21.7344V38.5586H16.959ZM31.5195 33.1191V38.2656H30.7578V33.1191H31.5195ZM24.791 34.2617V33.6465H28.7559V36H25.5527V37.2012C27.1055 37.2109 28.2627 37.1621 29.6738 36.9277L29.7617 37.5723C28.3018 37.7969 27.1152 37.8457 25.5137 37.8457H24.8105V35.3945H27.9941V34.2617H24.791ZM25.875 41.6738V38.7344H31.5195V41.6738H25.875ZM26.627 41.0488H30.7676V39.3594H26.627V41.0488Z" fill="#A9ABB6"/>
</svg>
