<svg width="48" height="49" viewBox="0 0 48 49" fill="none" xmlns="http://www.w3.org/2000/svg">
<rect width="48" height="49" fill="white"/>
<path d="M30 14C30 12.4087 29.3679 10.8826 28.2426 9.75736C27.1174 8.63214 25.5913 8 24 8C22.4087 8 20.8826 8.63214 19.7574 9.75736C18.6321 10.8826 18 12.4087 18 14C18 21 15 23 15 23H33C33 23 30 21 30 14Z" stroke="#A9ABB6" stroke-width="2" stroke-linecap="round" stroke-linejoin="round"/>
<path d="M25.73 27C25.5542 27.3031 25.3019 27.5547 24.9982 27.7295C24.6946 27.9044 24.3504 27.9965 24 27.9965C23.6496 27.9965 23.3054 27.9044 23.0018 27.7295C22.6982 27.5547 22.4458 27.3031 22.27 27" stroke="#A9ABB6" stroke-width="2" stroke-linecap="round" stroke-linejoin="round"/>
<path d="M13.2529 33.1094V41.791H12.5107V33.1094H13.2529ZM5.91895 36.8594C5.92383 35.0137 6.65625 33.8467 7.78418 33.8418C8.52637 33.8467 9.09766 34.3496 9.41016 35.2188H10.792V33.2949H11.5244V41.3516H10.792V38.5H9.41016C9.10254 39.374 8.52637 39.8818 7.78418 39.877C6.65625 39.8818 5.92383 38.7051 5.91895 36.8594ZM6.63184 36.8594C6.62695 38.2656 7.07129 39.1543 7.78418 39.1445C8.49219 39.1543 8.94629 38.2656 8.94629 36.8594C8.94629 35.4482 8.49219 34.5645 7.78418 34.5645C7.07129 34.5645 6.62695 35.4482 6.63184 36.8594ZM9.57129 35.8535C9.62988 36.1611 9.65918 36.498 9.65918 36.8594C9.65918 37.2158 9.62988 37.5527 9.57617 37.8555H10.792V35.8535H9.57129ZM22.5303 34.457V35.082H21.2412V36.3027H22.5303V36.957H21.2412V38.2754H20.4795V33.1094H21.2412V34.457H22.5303ZM14.6201 35.6777C14.6152 34.4717 15.582 33.6318 16.8955 33.6367C18.2188 33.6318 19.1709 34.4717 19.1807 35.6777C19.1709 36.8984 18.2188 37.7334 16.8955 37.7383C15.582 37.7334 14.6152 36.8984 14.6201 35.6777ZM15.3721 35.6777C15.3672 36.5127 16.0166 37.084 16.8955 37.0742C17.7842 37.084 18.4238 36.5127 18.4287 35.6777C18.4238 34.8623 17.7842 34.2959 16.8955 34.291C16.0166 34.2959 15.3672 34.8623 15.3721 35.6777ZM15.5576 39.3105V38.6758H21.2412V41.791H20.4795V39.3105H15.5576ZM32.8037 33.1191V39.7402H32.0322V37.875H30.5283V37.25H32.0322V36.0684H30.5283V35.4336H32.0322V33.1191H32.8037ZM25.6162 34.8086V34.1836H27.7256V33.1094H28.4873V34.1836H30.5283V34.8086H25.6162ZM26.1338 36.9473C26.124 35.9512 26.9346 35.2871 28.0967 35.2871C29.2588 35.2871 30.0742 35.9512 30.0791 36.9473C30.0742 37.9336 29.2588 38.6025 28.0967 38.6074C26.9346 38.6025 26.124 37.9336 26.1338 36.9473ZM26.8467 36.9473C26.8418 37.5723 27.3545 37.9971 28.0967 37.9922C28.8389 37.9971 29.3516 37.5723 29.3564 36.9473C29.3516 36.3223 28.8389 35.9023 28.0967 35.8926C27.3545 35.9023 26.8418 36.3223 26.8467 36.9473ZM27.1885 41.6055V39.1543H27.96V40.9609H32.999V41.6055H27.1885ZM41.0264 33.1191V35.7363H42.3252V36.3809H41.0264V39.0078H40.2549V33.1191H41.0264ZM34.21 37.9922C34.9033 37.9922 35.7188 37.9922 36.5635 37.9629V37.2744C35.543 37.1816 34.8984 36.7373 34.9033 36.0488C34.8984 35.2725 35.6992 34.8184 36.9346 34.8184C38.1699 34.8184 38.9658 35.2725 38.9756 36.0488C38.9658 36.7324 38.3359 37.1768 37.3252 37.2695V37.9336C38.1357 37.8945 38.9561 37.8262 39.7178 37.7188L39.7861 38.2559C37.916 38.583 35.8359 38.6123 34.2979 38.6074L34.21 37.9922ZM34.4248 34.457V33.8613H36.5635V33.041H37.3252V33.8613H39.4541V34.457H34.4248ZM35.3721 40.4531C35.3672 39.584 36.4121 39.1055 38.2236 39.1152C40.0303 39.1055 41.0801 39.584 41.085 40.4531C41.0801 41.3174 40.0303 41.7812 38.2236 41.791C36.4121 41.7812 35.3672 41.3174 35.3721 40.4531ZM35.6357 36.0488C35.6309 36.4834 36.1338 36.752 36.9346 36.752C37.7354 36.752 38.2432 36.4834 38.2432 36.0488C38.2432 35.6289 37.7354 35.3506 36.9346 35.3555C36.1338 35.3506 35.6309 35.6289 35.6357 36.0488ZM36.1436 40.4531C36.1338 40.9219 36.8857 41.2051 38.2236 41.2051C39.5518 41.2051 40.2988 40.9219 40.3037 40.4531C40.2988 39.9648 39.5518 39.6816 38.2236 39.6914C36.8857 39.6816 36.1338 39.9648 36.1436 40.4531Z" fill="#A9ABB6"/>
</svg>
