<svg width="57" height="56" viewBox="0 0 57 56" fill="none" xmlns="http://www.w3.org/2000/svg">
<g opacity="0.5">
<path d="M27.5 27C31.9183 27 35.5 23.4183 35.5 19C35.5 14.5817 31.9183 11 27.5 11C23.0817 11 19.5 14.5817 19.5 19C19.5 23.4183 23.0817 27 27.5 27Z" stroke="#1A1C2D" stroke-width="2" stroke-linecap="round" stroke-linejoin="round"/>
<path d="M37.4999 28.9999L33.1499 24.6499" stroke="#1A1C2D" stroke-width="2" stroke-linecap="round" stroke-linejoin="round"/>
<path d="M24.2473 37.1523C24.2473 38.0352 24.0539 38.832 23.6672 39.543C23.2805 40.2539 22.7219 40.8652 21.9914 41.377C21.2609 41.8887 20.3859 42.2891 19.3664 42.5781L18.9152 41.7051C19.7863 41.4629 20.5344 41.1426 21.1594 40.7441C21.7883 40.3418 22.2648 39.8789 22.5891 39.3555C22.9172 38.832 23.0832 38.2656 23.0871 37.6562V37.1523H24.2473ZM23.8313 38.0547H19.466V37.1523H23.8313V38.0547ZM27.5695 42.4492H26.4563V36.502H27.5695V42.4492ZM26.6379 40.0586H24.2824V39.1387H26.6379V40.0586ZM27.5695 46.8555H20.7082V42.8945H27.5695V46.8555ZM21.7863 45.9648H26.468V43.7734H21.7863V45.9648ZM31.6043 38.4707C31.6043 39.0293 31.5086 39.5742 31.3172 40.1055C31.1258 40.6328 30.8445 41.1074 30.4734 41.5293C30.1023 41.9512 29.659 42.2734 29.1434 42.4961L28.5457 41.6406C29.0027 41.4414 29.3953 41.168 29.7234 40.8203C30.0555 40.4727 30.3035 40.0957 30.4676 39.6895C30.6355 39.2832 30.7215 38.877 30.7254 38.4707V37.1289H31.6043V38.4707ZM31.7918 38.4707C31.7957 38.873 31.8777 39.2617 32.0379 39.6367C32.198 40.0117 32.4344 40.3535 32.7469 40.6621C33.0633 40.9668 33.4422 41.2051 33.8836 41.377L33.2859 42.2324C32.782 42.0293 32.3523 41.7363 31.9969 41.3535C31.6414 40.9668 31.3719 40.5273 31.1883 40.0352C31.0047 39.5391 30.9148 39.0176 30.9187 38.4707V37.1289H31.7918V38.4707ZM37.5398 42.8535H36.4793V36.502H37.5398V42.8535ZM36.8016 40.1055H34.8914V39.1797H36.8016V40.1055ZM35.2605 42.7949H34.2234V36.6836H35.2605V42.7949ZM37.5398 46.9902H36.4441V44.3008H30.4031V43.3926H37.5398V46.9902Z" fill="#1A1C2D"/>
</g>
</svg>
