<svg width="48" height="49" viewBox="0 0 48 49" fill="none" xmlns="http://www.w3.org/2000/svg">
<rect width="48" height="49" fill="white"/>
<path d="M31.375 15.75C31.375 21.875 23.5 27.125 23.5 27.125C23.5 27.125 15.625 21.875 15.625 15.75C15.625 13.6614 16.4547 11.6584 17.9315 10.1815C19.4084 8.70469 21.4114 7.875 23.5 7.875C25.5886 7.875 27.5916 8.70469 29.0685 10.1815C30.5453 11.6584 31.375 13.6614 31.375 15.75Z" stroke="#A9ABB6" stroke-width="1.75" stroke-linecap="round" stroke-linejoin="round"/>
<path d="M23.5 18.375C24.9497 18.375 26.125 17.1997 26.125 15.75C26.125 14.3003 24.9497 13.125 23.5 13.125C22.0503 13.125 20.875 14.3003 20.875 15.75C20.875 17.1997 22.0503 18.375 23.5 18.375Z" stroke="#A9ABB6" stroke-width="1.75" stroke-linecap="round" stroke-linejoin="round"/>
<path d="M12.0303 33.1094V36.6445H13.4365V37.2891H12.0303V41.791H11.2686V33.1094H12.0303ZM5.37012 39.5352C7.61133 38.4219 8.83203 36.7471 9.00781 34.6914H5.77051V34.0469H9.78418C9.7793 36.5029 8.62695 38.7441 5.7998 40.1406L5.37012 39.5352ZM21.3857 33.1094V41.791H20.6533V33.1094H21.3857ZM13.9639 39.3594C15.8486 38.2412 16.7959 36.6738 16.9424 34.8574H14.335V34.2227H17.7041C17.7041 35.0771 17.5674 35.9023 17.2695 36.6738H18.8271V33.3438H19.5596V41.3516H18.8271V37.2988H16.9863C16.4639 38.3096 15.624 39.2031 14.4131 39.916L13.9639 39.3594ZM32.0107 33.4805V36.4102H29.4424V37.5234H33.0166V38.1484H25.1064V37.5234H28.6807V36.4102H26.1318V33.4805H32.0107ZM25.9854 39.6719V39.0566H32.04V41.791H31.2686V39.6719H25.9854ZM26.8838 35.7949H31.249V34.0957H26.8838V35.7949ZM41.6885 37.8945V38.5293H33.7393V37.8945H37.333V36.9766H34.7744V34.8574H39.8916V33.959H34.7451V33.334H40.6631V35.4336H35.5361V36.3613H40.8486V36.9766H38.085V37.8945H41.6885ZM34.6279 39.8184V39.1934H40.7119V41.7129H39.9404V39.8184H34.6279Z" fill="#A9ABB6"/>
</svg>
