<svg width="57" height="56" viewBox="0 0 57 56" fill="none" xmlns="http://www.w3.org/2000/svg">
<path d="M16.0594 46.9844H14.952V36.4902H16.0594V46.9844ZM17.6883 41.6113H15.7723V40.6855H17.6883V41.6113ZM13.3113 37.6035C13.3074 38.6504 13.1434 39.6309 12.8191 40.5449C12.4949 41.459 11.9754 42.3008 11.2605 43.0703C10.5496 43.8398 9.63359 44.5 8.5125 45.0508L7.89141 44.1836C8.85234 43.7031 9.65313 43.1445 10.2938 42.5078C10.9383 41.8711 11.4188 41.1602 11.7352 40.375C12.0555 39.5898 12.2176 38.7305 12.2215 37.7969V37.6035H13.3113ZM12.784 38.5293H8.40703V37.6035H12.784V38.5293ZM26.6742 46.9902H25.6195V36.4902H26.6742V46.9902ZM23.6801 41.6113H21.1195V40.7148H23.6801V41.6113ZM24.4594 46.4863H23.4047V36.7598H24.4594V46.4863ZM22.2035 37.8027C22.1996 38.7754 22.0648 39.6816 21.7992 40.5215C21.5375 41.3613 21.1137 42.1406 20.5277 42.8594C19.9457 43.5742 19.1879 44.2051 18.2543 44.752L17.6156 43.9551C18.4242 43.4746 19.0883 42.9316 19.6078 42.3262C20.1313 41.7207 20.5141 41.0605 20.7563 40.3457C21.0023 39.6309 21.1273 38.8535 21.1313 38.0137V37.8027H22.2035ZM21.5238 38.7109H18.1078V37.8027H21.5238V38.7109ZM38.107 40.5273H30.9762V36.9297H38.107V40.5273ZM32.066 39.6426H37.0113V37.8086H32.066V39.6426ZM39.3258 42.6543H29.7516V41.7578H39.3258V42.6543ZM35.0895 42.0742H33.9762V40.3164H35.0895V42.0742ZM38.148 46.9902H37.0348V44.5293H30.8121V43.6445H38.148V46.9902ZM49.1203 43.1348H39.5109V42.2266H49.1203V43.1348ZM47.9074 39.3848H41.8488V40.7148H40.7473V38.5645H46.7941V37.627H40.718V36.7363H47.9074V39.3848ZM48.1242 41.2363H40.7473V40.3633H48.1242V41.2363ZM44.8605 42.6953H43.7648V40.791H44.8605V42.6953ZM47.966 46.9141H46.8469V44.7578H40.5832V43.8672H47.966V46.9141Z" fill="#FF8D4E"/>
<path d="M19.5 17L28.5 10L37.5 17V28C37.5 28.5304 37.2893 29.0391 36.9142 29.4142C36.5391 29.7893 36.0304 30 35.5 30H21.5C20.9696 30 20.4609 29.7893 20.0858 29.4142C19.7107 29.0391 19.5 28.5304 19.5 28V17Z" stroke="#FF8D4E" stroke-width="2" stroke-linecap="round" stroke-linejoin="round"/>
<path d="M25.5 30V20H31.5V30" stroke="#FF8D4E" stroke-width="2" stroke-linecap="round" stroke-linejoin="round"/>
</svg>
